HIERARCHY
ROOT Hips
{
	OFFSET 0.000000 0.000000 0.000000
	CHANNELS 6 Xposition Yposition Zposition Zrotation Yrotation Xrotation 
	JOINT LeftUpLeg_virtual
	{
		OFFSET 0.000000 0.000000 0.000000
		CHANNELS 3 Zrotation Yrotation Xrotation
		JOINT LeftUpLeg
		{
			OFFSET 10.205400 -3.823500 0.155100
			CHANNELS 3 Zrotation Yrotation Xrotation
			JOINT LeftLeg
			{
				OFFSET 0.708757 -12.982077 0.567790
				CHANNELS 3 Zrotation Yrotation Xrotation
				JOINT LeftFoot
				{
					OFFSET -0.708756 -10.717838 -2.184338
					CHANNELS 3 Zrotation Yrotation Xrotation
					JOINT LeftToeBase
					{
						OFFSET 0.108149 -7.191104 7.560241
						CHANNELS 3 Zrotation Yrotation Xrotation
						End Site
						{
							OFFSET 0.000000 0.000000 0.000000
						}
					}
				}
			}
		}
	}
	JOINT RightUpLeg_virtual
	{
		OFFSET 0.000000 0.000000 0.000000
		CHANNELS 3 Zrotation Yrotation Xrotation
		JOINT RightUpLeg
		{
			OFFSET -10.205400 -3.823500 0.005500
			CHANNELS 3 Zrotation Yrotation Xrotation
			JOINT RightLeg
			{
				OFFSET -0.708756 -12.982134 0.610632
				CHANNELS 3 Zrotation Yrotation Xrotation
				JOINT RightFoot
				{
					OFFSET 0.708754 -10.717769 -1.945823
					CHANNELS 3 Zrotation Yrotation Xrotation
					JOINT RightToeBase
					{
						OFFSET -0.108140 -7.191069 7.372968
						CHANNELS 3 Zrotation Yrotation Xrotation
						End Site
						{
							OFFSET 0.000000 0.000000 0.000000
						}
					}
				}
			}
		}
	}
	JOINT Spine_virtual
	{
		OFFSET 0.000000 0.000000 0.000000
		CHANNELS 3 Zrotation Yrotation Xrotation
		JOINT Spine
		{
			OFFSET 0.000000 6.876099 0.125700
			CHANNELS 3 Zrotation Yrotation Xrotation
			JOINT Spine1
			{
				OFFSET 0.000000 8.022060 0.146608
				CHANNELS 3 Zrotation Yrotation Xrotation
				JOINT Spine2
				{
					OFFSET 0.000000 9.168068 0.167552
					CHANNELS 3 Zrotation Yrotation Xrotation
					JOINT Neck_virtual
					{
						OFFSET 0.000000 0.000000 0.000000
						CHANNELS 3 Zrotation Yrotation Xrotation
						JOINT Neck
						{
							OFFSET 0.000000 10.314075 0.188496
							CHANNELS 3 Zrotation Yrotation Xrotation
							JOINT Head
							{
								OFFSET 0.000000 7.643700 -2.377400
								CHANNELS 3 Zrotation Yrotation Xrotation
								End Site
								{
									OFFSET 0.000000 0.000000 0.000000
								}
							}
						}
					}
					JOINT LeftShoulder_virtual
					{
						OFFSET 0.000000 0.000000 0.000000
						CHANNELS 3 Zrotation Yrotation Xrotation
						JOINT LeftShoulder
						{
							OFFSET 4.392200 8.824978 0.174984
							CHANNELS 3 Zrotation Yrotation Xrotation
							JOINT LeftArm
							{
								OFFSET 8.771219 -2.981674 -0.026999
								CHANNELS 3 Zrotation Yrotation Xrotation
								JOINT LeftForeArm
								{
									OFFSET 8.512804 0.000000 -0.000000
									CHANNELS 3 Zrotation Yrotation Xrotation
									JOINT LeftHand
									{
										OFFSET 18.484802 0.000000 -0.000000
										CHANNELS 3 Zrotation Yrotation Xrotation
										End Site
										{
											OFFSET 0.000000 0.000000 0.000000
										}
									}
								}
							}
						}
					}
					JOINT RightShoulder_virtual
					{
						OFFSET 0.000000 0.000000 0.000000
						CHANNELS 3 Zrotation Yrotation Xrotation
						JOINT RightShoulder
						{
							OFFSET -4.392200 8.824993 0.141379
							CHANNELS 3 Zrotation Yrotation Xrotation
							JOINT RightArm
							{
								OFFSET -8.771282 -2.981682 -0.094208
								CHANNELS 3 Zrotation Yrotation Xrotation
								JOINT RightForeArm
								{
									OFFSET -8.494598 0.000000 0.000000
									CHANNELS 3 Zrotation Yrotation Xrotation
									JOINT RightHand
									{
										OFFSET -18.483803 0.000000 0.000001
										CHANNELS 3 Zrotation Yrotation Xrotation
										End Site
										{
											OFFSET 0.000000 0.000000 0.000000
										}
									}
								}
							}
						}
					}
				}
			}
		}
	}
}
MOTION
Frames: 10
Frame Time: 0.033333
-3.109945 25.324070 -18.764544 -179.974993 4.017195 179.937454 1.168631 -6.760143 -12.988865 0.195727 4.819418 -78.176515 13.468583 -8.626975 109.479647 -6.374013 -4.715250 12.090246 0.000000 0.000000 0.000000 2.633396 -2.039734 -15.160483 4.772331 -1.300179 -62.454860 -6.921647 1.242718 68.470994 2.097676 6.531223 16.403060 0.000000 0.000000 0.000000 -1.668997 -1.514600 -16.251252 2.997621 2.355423 -0.791189 -2.285252 -2.665107 16.102135 0.002269 -0.013706 -0.015659 -2.417912 -1.781986 19.763566 -1.903954 3.682439 25.167734 0.000000 0.000000 0.000000 -0.605833 -1.645053 15.638386 -5.787246 -7.613013 5.508742 -47.296506 3.013028 10.232195 -141.839875 -83.172026 158.435021 0.000000 0.000000 0.000000 -4.110380 -0.090983 15.117985 22.688299 15.989881 2.200249 55.760394 -6.584849 4.219474 -160.821134 75.503875 -168.038459 0.000000 0.000000 0.000000 
-3.034120 25.257574 -18.640705 -179.904451 3.762795 179.965513 1.359999 -6.724621 -13.766359 -0.347765 5.139920 -78.666417 13.680282 -8.900395 111.875425 -6.915704 -5.016455 11.606190 0.000000 0.000000 0.000000 2.584471 -2.018574 -15.964413 4.508247 -1.149778 -61.605246 -6.768370 1.449089 67.589803 2.069450 6.719141 16.521355 0.000000 0.000000 0.000000 -1.612388 -1.571157 -16.954737 3.119015 2.296227 -0.543528 -2.363232 -2.702765 16.432896 0.014088 0.015070 -0.024468 -2.529970 -1.847564 20.112692 -1.914364 3.746087 25.514127 0.000000 0.000000 0.000000 -0.711000 -1.748817 15.955134 -5.713280 -7.698776 5.405518 -47.638175 3.183498 8.360386 -141.702451 -83.042635 158.107541 0.000000 0.000000 0.000000 -4.258151 -0.303520 15.434740 23.162667 15.911090 1.934266 55.888091 -5.659785 4.325512 -161.834311 75.060514 -168.963608 0.000000 0.000000 0.000000 
-2.962759 25.220694 -18.503160 -179.976851 3.585156 179.968340 1.310352 -6.508674 -14.318456 -0.927335 5.435751 -78.845388 13.851251 -9.077816 113.608667 -7.454259 -5.389242 10.917747 0.000000 0.000000 0.000000 2.431872 -1.829469 -16.626738 4.287384 -1.110609 -61.009066 -6.573773 1.572547 67.262433 1.851799 6.840798 16.495226 0.000000 0.000000 0.000000 -1.718121 -1.589867 -17.331938 3.160964 2.243030 -0.397880 -2.439543 -2.756140 16.691306 -0.016761 -0.008056 -0.022791 -2.608604 -1.881616 20.375901 -1.981068 3.729230 25.837299 0.000000 0.000000 0.000000 -0.737044 -1.704070 16.202056 -5.675825 -7.649477 5.275024 -48.251161 3.346357 6.516362 -140.934615 -82.912739 157.149908 0.000000 0.000000 0.000000 -4.275673 -0.250821 15.626771 23.581071 15.886409 1.797073 56.059085 -4.783066 4.600865 -162.010284 74.674308 -169.044491 0.000000 0.000000 0.000000 
-2.903106 25.215767 -18.370689 -179.957439 3.349334 179.958477 1.326845 -6.298280 -14.708064 -1.531514 5.558155 -78.849568 13.985929 -9.129503 114.771603 -7.946602 -5.851003 9.929527 0.000000 0.000000 0.000000 2.396093 -1.602304 -16.946234 4.237266 -1.285627 -60.611283 -6.390277 1.486215 67.075019 1.470149 6.862717 16.667618 0.000000 0.000000 0.000000 -1.770668 -1.509624 -17.380303 3.228457 2.205210 -0.362907 -2.433996 -2.791289 16.834422 -0.018939 -0.008888 -0.027139 -2.608557 -1.899981 20.488819 -2.078751 3.528502 26.088778 0.000000 0.000000 0.000000 -0.722802 -1.747727 16.316922 -5.676980 -7.634793 5.149136 -48.998920 3.586515 5.034924 -141.745140 -82.868069 157.875164 0.000000 0.000000 0.000000 -4.271666 -0.311315 15.772633 23.885817 15.842137 1.548971 56.223003 -4.029051 5.084680 -162.660955 74.561200 -169.615754 0.000000 0.000000 0.000000 
-2.865655 25.247704 -18.269169 -179.942563 3.213717 -179.960062 1.309505 -6.137317 -14.942871 -2.279114 5.467085 -78.841843 14.048621 -9.064009 115.646427 -8.330326 -6.455728 8.699777 0.000000 0.000000 0.000000 2.414129 -1.447397 -17.085363 4.151727 -1.537145 -60.489412 -6.113855 1.367723 66.730101 1.124212 6.870794 17.018851 0.000000 0.000000 0.000000 -1.845708 -1.453420 -17.338172 3.305532 2.156984 -0.371375 -2.367832 -2.816535 16.903960 0.037777 -0.005279 -0.048070 -2.608059 -1.834723 20.512066 -2.105275 3.614198 26.263594 0.000000 0.000000 0.000000 -0.738515 -1.753702 16.377977 -5.742801 -7.630848 5.043383 -49.876849 3.860844 3.935993 -141.924842 -82.891709 157.735337 0.000000 0.000000 0.000000 -4.266048 -0.308561 15.838135 24.032728 15.803982 1.482160 56.275906 -3.520558 5.598826 -162.701991 74.577640 -169.553449 0.000000 0.000000 0.000000 
-2.855741 25.322472 -18.224096 -179.936348 3.144942 -179.970485 1.286682 -6.180804 -14.922087 -3.203969 5.155500 -78.740839 13.987466 -8.951216 116.566003 -8.507451 -7.142149 7.298779 0.000000 0.000000 0.000000 2.506679 -1.513766 -17.001323 4.170942 -1.933050 -60.401794 -5.810170 1.173431 66.259180 0.868741 6.902524 17.462514 0.000000 0.000000 0.000000 -1.856438 -1.534030 -17.071013 3.376376 2.215056 -0.409166 -2.294945 -2.775562 16.854774 0.018978 -0.009357 0.032331 -2.446431 -1.733581 20.450286 -2.160018 3.485740 26.338692 0.000000 0.000000 0.000000 -0.652564 -1.788635 16.370143 -5.892598 -7.715642 4.952401 -50.796721 4.039452 3.185682 -142.008130 -82.936863 157.640998 0.000000 0.000000 0.000000 -4.191113 -0.404567 15.818361 23.932640 15.832653 1.459412 56.137615 -3.203379 5.961612 -162.756837 74.704347 -169.484314 0.000000 0.000000 0.000000 
-2.852929 25.442844 -18.279844 179.953546 3.007809 -179.946948 1.147080 -6.402399 -14.691988 -4.213270 4.697650 -78.686470 13.852311 -8.813392 117.682698 -8.585966 -7.925029 5.862102 0.000000 0.000000 0.000000 2.548039 -1.771248 -16.758441 4.171059 -2.344859 -60.454298 -5.483136 1.008561 65.942936 0.688421 6.884996 17.661073 0.000000 0.000000 0.000000 -1.887850 -1.700536 -16.843424 3.409674 2.168258 -0.386458 -2.254972 -2.754372 16.786786 0.011951 0.009575 0.017447 -2.407653 -1.832662 20.384664 -2.263423 3.364853 26.269761 0.000000 0.000000 0.000000 -0.580282 -1.711444 16.322173 -6.047905 -7.727609 4.882882 -51.650816 4.276723 2.796686 -142.398721 -83.092407 157.879946 0.000000 0.000000 0.000000 -4.082740 -0.221324 15.725739 23.715498 15.694422 1.543326 55.932187 -3.148294 6.285339 -162.198606 74.778400 -168.764371 0.000000 0.000000 0.000000 
-2.859918 25.587164 -18.430454 179.885312 3.083738 -179.957808 1.087175 -6.437304 -14.293494 -5.245934 4.155745 -78.619862 13.643328 -8.698388 118.922910 -8.532063 -8.688293 4.523899 0.000000 0.000000 0.000000 2.647302 -1.920925 -16.335968 4.132947 -2.652321 -60.541035 -5.102987 0.990428 65.911237 0.540841 6.793024 17.434611 0.000000 0.000000 0.000000 -1.828454 -1.788733 -16.576430 3.454461 2.260281 -0.293021 -2.238527 -2.666716 16.700029 0.008148 0.018363 0.028248 -2.343871 -1.793000 20.253396 -2.342793 3.227590 26.149429 0.000000 0.000000 0.000000 -0.547748 -1.647197 16.211297 -6.191470 -7.824079 4.808426 -52.353940 4.419561 2.579208 -142.741200 -83.219325 158.083226 0.000000 0.000000 0.000000 -4.035931 -0.137664 15.591075 23.446257 15.619948 1.615822 55.670560 -3.187333 6.459639 -162.026157 74.814006 -168.425198 0.000000 0.000000 0.000000 
-2.846757 25.728428 -18.676645 179.958751 3.186403 179.883905 1.162420 -6.370776 -13.638058 -6.220895 3.668731 -78.433234 13.388395 -8.560104 120.140541 -8.493489 -9.369952 3.490850 0.000000 0.000000 0.000000 2.907038 -2.067877 -15.841468 4.118283 -2.742975 -60.470684 -4.737872 1.057776 66.328240 0.420716 6.649650 16.694943 0.000000 0.000000 0.000000 -1.651509 -1.803966 -16.090360 3.530659 2.276914 -0.123279 -2.242996 -2.623795 16.618067 0.000283 -0.013700 0.015634 -2.375865 -1.645779 20.095306 -2.470718 3.064146 25.981514 0.000000 0.000000 0.000000 -0.605016 -1.504718 16.067769 -6.306780 -7.860338 4.848564 -52.779638 4.566912 2.556181 -143.448275 -83.300393 158.721602 0.000000 0.000000 0.000000 -4.116692 -0.027126 15.490099 23.243351 15.587315 1.836526 55.510590 -3.192359 6.501158 -161.827658 74.846989 -168.050739 0.000000 0.000000 0.000000 
-2.809209 25.839848 -18.973249 179.899519 3.389256 179.985197 1.166447 -6.320204 -13.032476 -7.053035 3.412183 -78.418283 13.126105 -8.376694 121.069515 -8.566398 -9.896138 2.857213 0.000000 0.000000 0.000000 2.987286 -2.017581 -15.153540 4.216987 -2.882682 -60.947841 -4.363672 1.297075 67.070251 0.217909 6.332349 15.605217 0.000000 0.000000 0.000000 -1.540450 -1.752231 -15.691132 3.509043 2.352919 -0.066691 -2.270574 -2.522832 16.525696 0.039006 -0.005640 -0.056539 -2.428527 -1.526185 19.963376 -2.577086 2.975154 25.773324 0.000000 0.000000 0.000000 -0.685374 -1.382199 15.970362 -6.331169 -8.003033 4.782314 -52.993238 4.696177 2.746369 -144.605760 -83.336320 159.840825 0.000000 0.000000 0.000000 -4.194959 0.168141 15.322870 23.148455 15.431156 2.056121 55.436691 -3.207434 6.719364 -161.273225 74.739365 -167.351451 0.000000 0.000000 0.000000 
